<svg width="300" height="74" viewBox="0 0 300 74" fill="none" xmlns="http://www.w3.org/2000/svg">
<g clip-path="url(#clip0_5707_223)">
<mask id="mask0_5707_223" style="mask-type:luminance" maskUnits="userSpaceOnUse" x="0" y="0" width="300" height="74">
<path d="M299.132 0H0V73.4556H299.132V0Z" fill="white"/>
</mask>
<g mask="url(#mask0_5707_223)">
<mask id="mask1_5707_223" style="mask-type:luminance" maskUnits="userSpaceOnUse" x="0" y="0" width="300" height="74">
<path d="M299.132 0H0V73.4556H299.132V0Z" fill="white"/>
</mask>
<g mask="url(#mask1_5707_223)">
<path d="M30.7482 22.4196L5.80461 0.638184H0V73.4557H5.80461L44.7621 39.4399L55.6941 48.9867H61.4346V0.638184H55.6941L30.7482 22.4196ZM57.767 4.21963V45.403H57.0943L33.512 24.8125L57.0943 4.21963H57.767ZM3.66077 69.8743V4.21963H4.39751L42.0005 37.047L4.40437 69.8743H3.66077Z" fill="black"/>
<path d="M134.65 0.638184V4.27548H152.799V48.9308H156.58V4.27548H174.731V0.638184H134.65Z" fill="black"/>
<path d="M77.2132 0.638184H73.4312V48.9889H77.2132V0.638184Z" fill="black"/>
<path d="M111.425 3.72765C114.991 3.72823 118.502 4.59072 121.643 6.23819C124.785 7.88565 127.461 10.2669 129.431 13.1694L129.585 13.3929H133.966L133.533 12.6422C131.757 9.55496 129.324 6.87535 126.398 4.78388C123.472 2.69241 120.121 1.23766 116.57 0.517645C113.019 -0.202368 109.352 -0.170921 105.815 0.609867C102.278 1.39066 98.9533 2.90265 96.0651 5.04398C93.177 7.18531 90.7923 9.90623 89.0719 13.0234C87.3515 16.1406 86.3351 19.5817 86.0915 23.1148C85.8479 26.6479 86.3826 30.1909 87.6594 33.5052C88.9363 36.8195 90.9259 39.8281 93.494 42.3282C96.2631 45.0276 99.634 47.0653 103.343 48.2821C107.052 49.499 110.999 49.862 114.875 49.3428C118.752 48.8237 122.453 47.4364 125.689 45.2894C128.927 43.1424 131.611 40.2938 133.533 36.9661L133.966 36.2154H129.578L129.425 36.4388C127.365 39.4816 124.531 41.9506 121.202 43.6044C117.873 45.2582 114.161 46.0404 110.43 45.8744C106.699 45.7084 103.075 44.6 99.9135 42.6575C96.7519 40.7149 94.1606 38.0047 92.3926 34.7917C90.6246 31.5786 89.7404 27.9726 89.8264 24.3261C89.9126 20.6795 90.9659 17.1171 92.8837 13.987C94.8015 10.8569 97.5179 8.26618 100.768 6.46796C104.018 4.66974 107.689 3.72555 111.425 3.72765Z" fill="black"/>
<path d="M189.846 10.4097V0.458496H190.461V5.1213H197.876V0.458496H198.495V10.4097H197.876V5.64858H190.461V10.4097H189.846Z" fill="black"/>
<path d="M202.259 6.91371C202.825 6.55475 203.616 6.37452 204.633 6.37303H207.38V5.57765C207.386 5.31157 207.322 5.04836 207.194 4.81351C207.066 4.57867 206.877 4.38013 206.647 4.23712C206.159 3.9154 205.477 3.75453 204.604 3.75453C203.566 3.75453 202.748 4.03902 202.154 4.608L201.753 4.22372C202.44 3.5609 203.389 3.22949 204.604 3.22949C205.652 3.22949 206.474 3.43802 207.07 3.85507C207.357 4.04683 207.589 4.30638 207.746 4.60954C207.902 4.91269 207.977 5.24959 207.965 5.58882V10.4103H207.38V9.42944C206.742 10.14 205.751 10.4952 204.404 10.4952C203.489 10.4952 202.762 10.3127 202.223 9.94778C201.966 9.78482 201.756 9.56004 201.614 9.29511C201.472 9.03018 201.403 8.73404 201.412 8.43522C201.404 8.13144 201.479 7.83104 201.627 7.56404C201.776 7.29704 201.994 7.07279 202.259 6.91371ZM201.996 8.41958C201.994 8.65218 202.056 8.88102 202.176 9.08142C202.298 9.28183 202.472 9.44619 202.682 9.55679C203.231 9.85604 203.856 9.99921 204.485 9.97012C205.217 10.0001 205.943 9.82239 206.574 9.45849C207.114 9.11591 207.384 8.6847 207.384 8.16488V6.87126H204.639C203.815 6.87126 203.169 7.01053 202.702 7.28906C202.49 7.39663 202.312 7.55882 202.188 7.75809C202.063 7.95735 201.997 8.1861 201.996 8.41958Z" fill="black"/>
<path d="M211.107 10.4103V3.30322H211.693V9.89863H217.228V3.30322H217.816V9.89863H219.202V12.5462H218.617V10.4103H211.107Z" fill="black"/>
<path d="M221.098 1.48657C221.096 1.41232 221.11 1.33841 221.139 1.26982C221.168 1.20123 221.212 1.13953 221.268 1.08887C221.387 0.988059 221.541 0.932617 221.699 0.932617C221.857 0.932617 222.01 0.988059 222.13 1.08887C222.186 1.13953 222.23 1.20123 222.259 1.26982C222.288 1.33841 222.302 1.41232 222.3 1.48657C222.302 1.56085 222.288 1.63484 222.259 1.70348C222.23 1.77212 222.186 1.83378 222.13 1.88426C222.01 1.98507 221.857 2.04051 221.699 2.04051C221.541 2.04051 221.387 1.98507 221.268 1.88426C221.212 1.83378 221.168 1.77212 221.139 1.70348C221.11 1.63484 221.096 1.56085 221.098 1.48657Z" fill="black"/>
<path d="M221.992 3.30322H221.406V10.4102H221.992V3.30322Z" fill="black"/>
<path d="M225.659 4.24118C226.014 3.90141 226.437 3.63555 226.9 3.45967C227.364 3.2838 227.859 3.20155 228.356 3.21791C228.858 3.20128 229.358 3.28397 229.826 3.46098C230.294 3.63799 230.721 3.90567 231.08 4.24789C231.432 4.58681 231.71 4.99343 231.894 5.44215C232.079 5.89088 232.166 6.37199 232.15 6.85522C232.166 7.33826 232.08 7.81935 231.897 8.26837C231.714 8.7174 231.438 9.12469 231.086 9.46478C230.345 10.1274 229.378 10.4949 228.372 10.4949C227.368 10.4949 226.4 10.1274 225.659 9.46478C225.307 9.12527 225.029 8.71823 224.844 8.26918C224.66 7.82013 224.573 7.33875 224.588 6.85522C224.572 6.37096 224.659 5.88877 224.844 5.43892C225.028 4.98907 225.306 4.58129 225.659 4.24118ZM225.167 6.85522C225.167 7.68479 225.504 8.48038 226.106 9.06698C226.706 9.65357 227.521 9.98312 228.37 9.98312C229.219 9.98312 230.035 9.65357 230.636 9.06698C231.236 8.48038 231.573 7.68479 231.573 6.85522C231.586 6.4414 231.512 6.02944 231.354 5.64505C231.197 5.26065 230.959 4.91206 230.658 4.621C230.357 4.33113 230 4.10371 229.607 3.95243C229.213 3.80114 228.793 3.72913 228.37 3.74072C227.949 3.72803 227.528 3.79984 227.135 3.95173C226.742 4.10362 226.386 4.33237 226.087 4.62391C225.788 4.91544 225.554 5.2636 225.398 5.64695C225.242 6.03029 225.168 6.44072 225.181 6.85298L225.167 6.85522Z" fill="black"/>
<path d="M235.311 3.30322V6.47134H240.877V3.30322H241.462V10.4102H240.877V6.98521H235.311V10.4102H234.725V3.30322H235.311Z" fill="black"/>
<path d="M245.069 6.91371C245.634 6.55475 246.426 6.37452 247.444 6.37303H250.189V5.57765C250.195 5.31157 250.131 5.04836 250.003 4.81351C249.875 4.57867 249.687 4.38013 249.457 4.23712C248.971 3.9154 248.289 3.75453 247.414 3.75453C246.377 3.75453 245.558 4.03828 244.963 4.608L244.563 4.22372C245.252 3.5609 246.203 3.22949 247.414 3.22949C248.464 3.22949 249.287 3.43802 249.88 3.85507C250.166 4.04683 250.4 4.30638 250.556 4.60954C250.713 4.91269 250.788 5.24959 250.775 5.58882V10.4103H250.189V9.42944C249.552 10.14 248.561 10.4952 247.215 10.4952C246.3 10.4952 245.572 10.3127 245.032 9.94778C244.776 9.78439 244.566 9.55947 244.426 9.29459C244.284 9.02972 244.215 8.73379 244.225 8.43522C244.216 8.13166 244.29 7.8314 244.439 7.56442C244.587 7.29743 244.804 7.07307 245.069 6.91371ZM244.815 8.41958C244.812 8.65223 244.874 8.88117 244.995 9.08162C245.116 9.28206 245.291 9.44638 245.501 9.55679C246.051 9.85549 246.675 9.99862 247.304 9.97012C248.036 10.0005 248.762 9.82275 249.392 9.45849C249.933 9.11591 250.203 8.6847 250.203 8.16488V6.87126H247.457C246.633 6.87126 245.99 7.00979 245.521 7.28906C245.309 7.39644 245.131 7.55858 245.006 7.75789C244.882 7.9572 244.815 8.18605 244.815 8.41958Z" fill="black"/>
<path d="M252.932 10.2829V9.74223C253.176 9.87443 253.453 9.9429 253.732 9.94108C253.901 9.94307 254.067 9.897 254.208 9.8085C254.351 9.72001 254.463 9.59294 254.533 9.44285C254.718 9.11218 254.851 8.54916 254.927 7.75155C255.002 6.95393 255.044 5.78544 255.044 4.24159V3.30322H260.793V10.4102H260.207V3.79922H255.631V4.24606C255.649 5.52226 255.596 6.79845 255.469 8.0688C255.361 8.96249 255.178 9.57467 254.922 9.94555C254.8 10.1251 254.632 10.2706 254.434 10.3677C254.237 10.4648 254.017 10.5103 253.797 10.4996C253.493 10.5077 253.193 10.4326 252.932 10.2829Z" fill="black"/>
<path d="M263.938 10.4103V3.30322H264.524V6.31718H267.638C268.244 6.29545 268.835 6.50362 269.288 6.89808C269.498 7.08251 269.663 7.30893 269.775 7.56187C269.887 7.81481 269.942 8.08832 269.935 8.36372C269.942 8.63879 269.887 8.91196 269.775 9.16454C269.663 9.41711 269.498 9.64313 269.288 9.82713C268.836 10.223 268.245 10.4321 267.638 10.4103H263.938ZM264.524 9.89863H267.59C268.052 9.91563 268.505 9.76075 268.856 9.46519C269.011 9.32481 269.135 9.15448 269.22 8.96491C269.305 8.77535 269.349 8.57065 269.349 8.36372C269.349 8.15679 269.305 7.9521 269.22 7.76253C269.135 7.57296 269.011 7.40263 268.856 7.26225C268.505 6.96531 268.052 6.81023 267.59 6.82882H264.524V9.89863Z" fill="black"/>
<path d="M273.064 3.30322V6.47134H278.63V3.30322H279.216V10.4102H278.63V6.98521H273.064V10.4102H272.478V3.30322H273.064Z" fill="black"/>
<path d="M282.361 10.4102V3.30322H282.946V9.59924L288.589 3.30322H289.176V10.4102H288.589V4.11201L282.946 10.4102H282.361Z" fill="black"/>
<path d="M292.904 3.30342V9.59945L298.546 3.30342H299.132V10.4104H298.546V4.11221L292.904 10.4104H292.318V3.30342H292.904ZM293.547 0.530762H294.087C294.085 0.71803 294.128 0.903227 294.211 1.0721C294.294 1.24098 294.415 1.38903 294.566 1.50488C294.9 1.77145 295.322 1.9104 295.753 1.89587C296.182 1.91068 296.601 1.77158 296.931 1.50488C297.081 1.38802 297.2 1.2396 297.282 1.07084C297.364 0.902082 297.405 0.717399 297.402 0.530762H297.943C297.947 0.78294 297.894 1.03289 297.785 1.26193C297.678 1.49097 297.517 1.69317 297.318 1.85342C296.881 2.21107 296.324 2.39808 295.753 2.37846C295.177 2.40007 294.615 2.21305 294.172 1.85342C293.972 1.69317 293.813 1.49097 293.704 1.26193C293.597 1.03289 293.543 0.78294 293.547 0.530762Z" fill="black"/>
<path d="M189.846 22.5537H190.617L193.932 27.6142L197.261 22.5537H198.016V29.6608H197.414V23.2709L194.147 28.2755H193.715L190.431 23.2709V29.6608H189.846V22.5537Z" fill="black"/>
<path d="M200.129 22.5537H200.731L204.046 29.348L207.174 22.5537H207.775L203.691 31.4236C203.5 31.882 203.191 32.2856 202.797 32.5965C202.451 32.8668 202.022 33.0142 201.579 33.0143C201.289 33.0125 201.002 32.9596 200.731 32.8579V32.3619C200.999 32.4544 201.279 32.5019 201.563 32.5027C202.232 32.5027 202.761 32.0953 203.151 31.2806L203.738 30.0026L200.129 22.5537Z" fill="black"/>
<path d="M208.98 23.3218C209.677 22.7513 210.617 22.4668 211.801 22.4683C212.716 22.4683 213.454 22.6486 214.014 23.009C214.266 23.1485 214.477 23.3506 214.625 23.5949C214.772 23.8393 214.851 24.1173 214.854 24.4009C214.854 25.1323 214.427 25.6677 213.574 26.0073C213.991 26.1263 214.365 26.3588 214.651 26.6776C214.914 26.9707 215.058 27.3474 215.055 27.7366C215.053 28.03 214.971 28.3176 214.819 28.5708C214.668 28.824 214.45 29.034 214.19 29.1799C213.616 29.5553 212.854 29.7422 211.902 29.7407C210.699 29.7407 209.747 29.457 209.048 28.8895L209.451 28.5052C210.061 28.9788 210.884 29.2157 211.918 29.2157C212.562 29.2455 213.202 29.1001 213.766 28.7956C213.971 28.6914 214.142 28.5353 214.263 28.3438C214.384 28.1523 214.449 27.9325 214.453 27.7076C214.454 27.5075 214.403 27.3104 214.307 27.1336C214.212 26.9567 214.073 26.8055 213.904 26.6932C213.505 26.4127 213.022 26.2697 212.531 26.2866H210.65V25.775H212.332C212.819 25.7921 213.3 25.6575 213.705 25.3907C213.872 25.2875 214.01 25.1451 214.104 24.9764C214.2 24.8077 214.25 24.6183 214.251 24.4255C214.246 24.2074 214.179 23.995 214.058 23.8116C213.937 23.6283 213.766 23.4812 213.565 23.3866C213.022 23.1011 212.411 22.9637 211.794 22.9889C210.756 22.9889 209.948 23.2257 209.374 23.6994L208.98 23.3218Z" fill="black"/>
<path d="M218.12 23.494C218.466 23.157 218.878 22.8923 219.331 22.7164C219.785 22.5404 220.271 22.4568 220.759 22.4707C221.242 22.4606 221.721 22.5439 222.171 22.7157C222.62 22.8874 223.031 23.1444 223.378 23.4717C223.726 23.784 224.001 24.1643 224.187 24.5879C224.373 25.0114 224.466 25.4685 224.458 25.9293C224.463 26.0345 224.453 26.1399 224.427 26.2421H217.643C217.651 26.6477 217.746 27.0471 217.925 27.4136C218.103 27.78 218.359 28.105 218.676 28.3668C219.352 28.9382 220.221 29.2405 221.114 29.2136C222.171 29.2136 222.992 28.9053 223.58 28.2886L224.026 28.6305C223.329 29.3752 222.353 29.7476 221.098 29.7476C220.03 29.785 218.989 29.4129 218.199 28.7109C217.483 28.0278 217.072 27.0956 217.058 26.1181C217.043 25.1406 217.426 24.1972 218.12 23.494ZM217.663 25.7394H223.857C223.795 24.9851 223.442 24.2818 222.871 23.771C222.286 23.2702 221.535 22.994 220.758 22.994C219.981 22.994 219.229 23.2702 218.645 23.771C218.075 24.279 217.724 24.9779 217.659 25.7282L217.663 25.7394Z" fill="black"/>
<path d="M227.526 22.5534V28.8561L233.168 22.5601H233.754V29.6605H233.168V23.3644L227.526 29.6605H226.938V22.5534H227.526ZM228.157 19.7808H228.697C228.694 19.9679 228.735 20.1532 228.818 20.3221C228.901 20.4911 229.022 20.6392 229.173 20.7549C229.507 21.0207 229.929 21.1596 230.36 21.1459C230.789 21.1612 231.21 21.0221 231.541 20.7549C231.688 20.637 231.805 20.4881 231.885 20.3193C231.963 20.1505 232.003 19.9664 231.998 19.7808H232.539C232.543 20.0329 232.489 20.2829 232.381 20.5119C232.273 20.741 232.113 20.9432 231.914 21.1034C231.464 21.4451 230.912 21.6307 230.342 21.6307C229.772 21.6307 229.219 21.4451 228.77 21.1034C228.573 20.9421 228.415 20.7394 228.308 20.5104C228.203 20.2814 228.15 20.032 228.157 19.7808Z" fill="black"/>
<path d="M241.139 20.7368C241.137 20.6626 241.151 20.5889 241.18 20.5203C241.209 20.4518 241.253 20.3901 241.308 20.3391C241.428 20.2382 241.582 20.1826 241.741 20.1826C241.899 20.1826 242.053 20.2382 242.173 20.3391C242.227 20.3913 242.269 20.4532 242.298 20.5215C242.327 20.5897 242.342 20.6629 242.342 20.7368C242.342 20.8108 242.327 20.8839 242.298 20.9522C242.269 21.0204 242.227 21.0824 242.173 21.1345C242.053 21.2355 241.899 21.291 241.741 21.291C241.582 21.291 241.428 21.2355 241.308 21.1345C241.253 21.0837 241.209 21.022 241.18 20.9534C241.151 20.8849 241.137 20.811 241.139 20.7368Z" fill="black"/>
<path d="M242.032 22.5537H241.446V29.6608H242.032V22.5537Z" fill="black"/>
<path d="M245.716 23.4937C246.081 23.1531 246.511 22.8871 246.983 22.7114C247.454 22.5357 247.957 22.4537 248.461 22.4704C249.397 22.4434 250.311 22.7464 251.035 23.3239L250.619 23.706C250.012 23.2217 249.245 22.9692 248.461 22.9955C248.031 22.981 247.602 23.0518 247.201 23.2034C246.799 23.3551 246.433 23.5846 246.125 23.878C245.532 24.4777 245.201 25.2787 245.201 26.1122C245.201 26.9457 245.532 27.7467 246.125 28.3464C246.433 28.6384 246.798 28.867 247.198 29.0186C247.598 29.1702 248.026 29.2417 248.455 29.2289C249.236 29.2485 250.001 28.9968 250.612 28.5185L251.028 28.9028C250.303 29.4795 249.389 29.7817 248.455 29.754C247.949 29.7698 247.446 29.6868 246.975 29.5099C246.503 29.3331 246.073 29.0658 245.708 28.724C245.01 28.026 244.618 27.0885 244.618 26.1122C244.618 25.1359 245.01 24.1984 245.708 23.5004L245.716 23.4937Z" fill="black"/>
<path d="M259.513 22.5533V23.047H256.309V29.6603H255.723V23.047H252.502V22.5488L259.513 22.5533Z" fill="black"/>
<path d="M261.886 23.4938C262.627 22.8332 263.593 22.4668 264.597 22.4668C265.599 22.4668 266.566 22.8332 267.306 23.4938C267.993 24.1963 268.377 25.1306 268.377 26.1023C268.377 27.0739 267.993 28.0082 267.306 28.7107C266.565 29.3733 265.598 29.7407 264.593 29.7407C263.588 29.7407 262.62 29.3733 261.879 28.7107C261.19 28.0078 260.805 27.0722 260.805 26.0989C260.805 25.1256 261.19 24.19 261.879 23.4871L261.886 23.4938ZM261.394 26.1101C261.38 26.5238 261.454 26.936 261.609 27.3209C261.765 27.7058 262.002 28.0551 262.302 28.3471C262.603 28.6391 262.961 28.8675 263.357 29.0181C263.751 29.1687 264.174 29.2382 264.598 29.2223C265.02 29.2336 265.441 29.1613 265.834 29.0096C266.227 28.8579 266.585 28.6301 266.886 28.3398C267.471 27.7364 267.797 26.9368 267.797 26.1056C267.797 25.2744 267.471 24.4748 266.886 23.8714C266.585 23.5811 266.227 23.3533 265.834 23.2016C265.441 23.0499 265.02 22.9776 264.598 22.9889C264.174 22.9746 263.752 23.0453 263.358 23.1966C262.963 23.348 262.605 23.5766 262.305 23.8685C262.005 24.1604 261.769 24.5094 261.613 24.8938C261.456 25.2782 261.382 25.6899 261.394 26.1034V26.1101Z" fill="black"/>
<path d="M270.949 22.5528H271.535V24.2017C271.849 23.6668 272.308 23.2269 272.862 22.9304C273.447 22.6171 274.106 22.4577 274.773 22.4679C275.27 22.4559 275.764 22.5411 276.228 22.7186C276.69 22.896 277.112 23.1621 277.468 23.5011C277.823 23.8402 278.106 24.2454 278.3 24.6928C278.493 25.1402 278.592 25.6208 278.592 26.1064C278.592 26.5919 278.493 27.0725 278.3 27.52C278.106 27.9674 277.823 28.3725 277.468 28.7116C277.112 29.0506 276.69 29.3167 276.228 29.4942C275.764 29.6716 275.27 29.7568 274.773 29.7448C274.106 29.755 273.447 29.5957 272.862 29.2823C272.308 28.9858 271.849 28.5459 271.535 28.011V32.9263H270.949V22.5528ZM272.446 28.3372C272.746 28.6277 273.104 28.8557 273.498 29.0074C273.891 29.159 274.312 29.2313 274.734 29.2197C275.363 29.2096 275.976 29.0205 276.497 28.6757C277.018 28.3309 277.424 27.8452 277.667 27.2782C277.91 26.7111 277.978 26.0872 277.864 25.4829C277.749 24.8786 277.457 24.32 277.022 23.8755C276.399 23.3081 275.577 22.9926 274.724 22.9926C273.872 22.9926 273.051 23.3081 272.428 23.8755C271.842 24.4784 271.514 25.2782 271.514 26.1097C271.514 26.9412 271.842 27.741 272.428 28.3439L272.446 28.3372Z" fill="black"/>
<path d="M280.786 20.7368C280.784 20.6626 280.798 20.5888 280.827 20.5203C280.856 20.4518 280.9 20.39 280.956 20.3391C281.075 20.2381 281.229 20.1826 281.388 20.1826C281.546 20.1826 281.7 20.2381 281.82 20.3391C281.874 20.3912 281.916 20.4532 281.945 20.5215C281.974 20.5897 281.989 20.6629 281.989 20.7368C281.989 20.8107 281.974 20.8839 281.945 20.9522C281.916 21.0204 281.874 21.0824 281.82 21.1345C281.7 21.2355 281.546 21.291 281.388 21.291C281.229 21.291 281.075 21.2355 280.956 21.1345C280.9 21.0837 280.856 21.0219 280.827 20.9534C280.798 20.8848 280.784 20.811 280.786 20.7368Z" fill="black"/>
<path d="M281.685 22.5537H281.099V29.6607H281.685V22.5537Z" fill="black"/>
<path d="M283.396 20.326C283.452 20.2765 283.518 20.2384 283.589 20.2139C283.66 20.1893 283.737 20.1788 283.812 20.183C283.889 20.1796 283.967 20.191 284.039 20.2167C284.112 20.2424 284.178 20.2818 284.235 20.3327C284.287 20.3816 284.328 20.4402 284.356 20.5048C284.384 20.5695 284.398 20.639 284.398 20.7092C284.398 20.7794 284.384 20.8488 284.356 20.9135C284.328 20.9782 284.287 21.0367 284.235 21.0856C284.178 21.1365 284.112 21.1759 284.039 21.2016C283.967 21.2273 283.889 21.2387 283.812 21.2353C283.737 21.2395 283.66 21.229 283.589 21.2045C283.518 21.1799 283.452 21.1418 283.396 21.0923C283.296 20.9887 283.24 20.8516 283.24 20.7092C283.24 20.5667 283.296 20.4296 283.396 20.326Z" fill="black"/>
<path d="M285.429 22.5537H284.843V29.6608H285.429V22.5537Z" fill="black"/>
<path d="M285.892 20.7097C285.891 20.6391 285.903 20.5689 285.931 20.5039C285.959 20.4388 286.001 20.3802 286.055 20.3321C286.172 20.2377 286.32 20.186 286.471 20.186C286.623 20.186 286.77 20.2377 286.887 20.3321C286.992 20.4339 287.05 20.5717 287.05 20.7153C287.05 20.8589 286.992 20.9967 286.887 21.0985C286.77 21.1929 286.623 21.2445 286.471 21.2445C286.32 21.2445 286.172 21.1929 286.055 21.0985C286 21.0492 285.957 20.9889 285.929 20.9217C285.901 20.8545 285.888 20.7822 285.892 20.7097Z" fill="black"/>
<path d="M189.846 38.9609H190.51L194.563 45.925L198.293 38.9609H198.941L194.424 47.4174C194.187 47.8767 193.841 48.2741 193.415 48.577C193.037 48.8472 192.58 48.9934 192.111 48.9948C191.806 48.9939 191.504 48.941 191.218 48.8384V48.3134C191.513 48.4144 191.821 48.4672 192.133 48.4698C192.843 48.4698 193.419 48.0624 193.861 47.2476L194.245 46.5215L189.846 38.9609Z" fill="black"/>
<path d="M199.97 48.9104V41.8145H200.555V45.0407H202.234L205.371 41.8145H206.097L202.715 45.2865L206.323 48.9104H205.568L202.236 45.5412H200.558V48.9104H199.97Z" fill="black"/>
<path d="M208.435 41.8136H209.02V43.4624C209.334 42.9268 209.793 42.4867 210.347 42.1911C210.932 41.8778 211.59 41.7184 212.257 41.7287C212.755 41.7166 213.25 41.8018 213.712 41.9793C214.174 42.1567 214.597 42.4228 214.953 42.7619C215.309 43.1009 215.592 43.5061 215.784 43.9535C215.978 44.4009 216.077 44.8815 216.077 45.3671C216.077 45.8526 215.978 46.3332 215.784 46.7807C215.592 47.2281 215.309 47.6333 214.953 47.9723C214.597 48.3114 214.174 48.5774 213.712 48.7549C213.25 48.9323 212.755 49.0175 212.257 49.0055C211.59 49.0164 210.932 48.8578 210.347 48.5453C209.793 48.2489 209.334 47.808 209.02 47.2717V52.187H208.435V41.8136ZM209.93 47.6002C210.381 48.0266 210.949 48.3143 211.565 48.4271C212.181 48.5399 212.817 48.473 213.395 48.2346C213.972 47.9962 214.465 47.597 214.811 47.0868C215.157 46.5766 215.342 45.9781 215.342 45.366C215.342 44.7538 215.157 44.1553 214.811 43.6451C214.465 43.1349 213.972 42.7357 213.395 42.4973C212.817 42.259 212.181 42.192 211.565 42.3048C210.949 42.4177 210.381 42.7053 209.93 43.1317C209.344 43.7349 209.018 44.5346 209.018 45.366C209.018 46.1973 209.344 46.997 209.93 47.6002Z" fill="black"/>
<path d="M219.03 45.4133C219.596 45.0528 220.388 44.8726 221.405 44.8726H224.151V44.0772C224.158 43.811 224.094 43.5476 223.966 43.3126C223.838 43.0777 223.649 42.8792 223.418 42.7367C222.931 42.415 222.25 42.2519 221.375 42.2519C220.337 42.2519 219.519 42.5364 218.925 43.1053L218.523 42.7076C219.21 42.0463 220.16 41.7149 221.373 41.7134C222.421 41.7134 223.243 41.922 223.84 42.339C224.127 42.5308 224.359 42.7903 224.515 43.0935C224.672 43.3966 224.747 43.7335 224.735 44.0728V48.9054H224.148V47.9245C223.511 48.635 222.519 48.9903 221.174 48.9903C220.259 48.9903 219.531 48.8085 218.992 48.4451C218.738 48.2749 218.531 48.0465 218.39 47.7799C218.25 47.5134 218.178 47.217 218.181 46.9168C218.185 46.6167 218.265 46.3221 218.413 46.0591C218.56 45.7961 218.773 45.5728 219.03 45.4088V45.4133ZM218.767 46.9214C218.765 47.154 218.827 47.3828 218.948 47.5832C219.069 47.7836 219.244 47.948 219.454 48.0586C220.003 48.3567 220.628 48.4991 221.256 48.4697C221.989 48.5008 222.715 48.323 223.345 47.9581C223.885 47.6155 224.155 47.1843 224.155 46.6644V45.3708H221.41C220.586 45.3708 219.941 45.5108 219.474 45.7909C219.261 45.8982 219.084 46.0604 218.959 46.2597C218.835 46.459 218.768 46.6878 218.767 46.9214Z" fill="black"/>
<path d="M226.431 39.5806C226.545 39.482 226.695 39.4307 226.847 39.4376C227.003 39.4317 227.155 39.4854 227.271 39.5873C227.324 39.6353 227.366 39.6938 227.394 39.7589C227.421 39.824 227.435 39.8943 227.433 39.9649C227.435 40.0352 227.423 40.1052 227.395 40.1701C227.366 40.2349 227.324 40.293 227.271 40.3403C227.214 40.3911 227.147 40.4305 227.074 40.4562C227.001 40.4819 226.925 40.4934 226.847 40.4899C226.695 40.4979 226.545 40.4465 226.431 40.347C226.378 40.2976 226.339 40.238 226.312 40.1721C226.285 40.1062 226.274 40.0356 226.277 39.9649C226.274 39.8939 226.285 39.8229 226.312 39.7566C226.339 39.6904 226.378 39.6304 226.431 39.5806Z" fill="black"/>
<path d="M228.466 41.8027H227.881V48.9097H228.466V41.8027Z" fill="black"/>
<path d="M228.929 39.9604C228.927 39.89 228.94 39.8199 228.967 39.7548C228.995 39.6897 229.037 39.6311 229.089 39.5828C229.205 39.4808 229.358 39.4271 229.514 39.4331C229.664 39.4285 229.81 39.4796 229.922 39.5761C230.026 39.6779 230.084 39.8156 230.084 39.9593C230.084 40.1029 230.026 40.2407 229.922 40.3424C229.81 40.4397 229.664 40.491 229.514 40.4854C229.358 40.4924 229.204 40.4386 229.089 40.3357C229.037 40.288 228.995 40.2297 228.967 40.165C228.94 40.1003 228.926 40.0305 228.929 39.9604Z" fill="black"/>
<path d="M232.212 41.8145V44.9848H237.777V41.8145H238.361V48.9215H237.777V45.4853H232.212V48.9104H231.626V41.8145H232.212Z" fill="black"/>
<path d="M241.51 48.9104V41.8145H242.095V48.1127L247.737 41.8145H248.323V48.9215H247.737V42.6143L242.095 48.9104H241.51Z" fill="black"/>
</g>
</g>
</g>
<defs>
<clipPath id="clip0_5707_223">
<rect width="300" height="74" fill="white"/>
</clipPath>
</defs>
</svg>
